<?xml version="1.0"?>
<svg xmlns="http://www.w3.org/2000/svg" xmlns:xlink="http://www.w3.org/1999/xlink" xmlns:svgjs="http://svgjs.com/svgjs" version="1.1" width="25" height="25" x="0" y="0" viewBox="0 0 511.999 511" style="enable-background:new 0 0 512 512" xml:space="preserve" class=""><g><path xmlns="http://www.w3.org/2000/svg" d="m135 78.5c8.285156 0 15-6.714844 15-15v-48c0-8.285156-6.714844-15-15-15s-15 6.714844-15 15v48c0 8.285156 6.714844 15 15 15zm0 0" fill="#4aa0d2" data-original="#000000" style="" class=""/><path xmlns="http://www.w3.org/2000/svg" d="m90.605469 69.894531-36-36c-5.855469-5.859375-15.355469-5.859375-21.210938 0-5.859375 5.855469-5.859375 15.355469 0 21.210938l36 36c2.925781 2.929687 6.765625 4.394531 10.605469 4.394531 3.835938 0 7.675781-1.464844 10.605469-4.394531 5.859375-5.855469 5.859375-15.355469 0-21.210938zm0 0" fill="#4aa0d2" data-original="#000000" style="" class=""/><path xmlns="http://www.w3.org/2000/svg" d="m63 120.5h-48c-8.285156 0-15 6.714844-15 15s6.714844 15 15 15h48c8.285156 0 15-6.714844 15-15s-6.714844-15-15-15zm0 0" fill="#4aa0d2" data-original="#000000" style="" class=""/><path xmlns="http://www.w3.org/2000/svg" d="m225.898438 86.167969c12.042968-12.042969 28.050781-18.671875 45.078124-18.671875 17.027344 0 33.039063 6.628906 45.078126 18.671875l84.019531 84.019531c12.390625-24.402344 37.738281-41.164062 66.925781-41.164062 5.136719 0 10.152344.523437 15 1.511718v-16.519531c0-12.019531-4.679688-23.320313-13.179688-31.820313s-19.800781-13.179687-31.820312-13.179687c-24.8125 0-45 20.1875-45 45v7.082031l-69.050781-69.046875c-17.351563-17.351562-45.582031-17.351562-62.933594 0-4.019531 4.019531-7.097656 8.628907-9.253906 13.550781-17.167969-9.738281-39.414063-7.308593-54.03125 7.308594-.5.496094-.984375 1.007813-1.453125 1.523438 10.347656 2.390625 19.929687 7.339844 27.976562 14.535156.851563-.953125 1.734375-1.890625 2.644532-2.800781zm0 0" fill="#4aa0d2" data-original="#000000" style="" class=""/><path xmlns="http://www.w3.org/2000/svg" d="m467 159.023438c-24.8125 0-45 20.1875-45 45v30.515624l-55.5625-55.5625-71.59375-71.597656c-13.183594-13.179687-34.550781-13.179687-47.730469 0-13.179687 13.179688-13.179687 34.550782 0 47.730469l-42.425781-42.425781c-13.179688-13.179688-34.550781-13.179688-47.730469 0-13.179687 13.179687-13.179687 34.550781 0 47.730468-13.179687-13.179687-34.550781-13.179687-47.730469 0-13.179687 13.179688-13.179687 34.550782 0 47.730469l42.425782 42.425781c-13.179688-13.179687-34.550782-13.179687-47.730469 0-13.179687 13.179688-13.179687 34.550782 0 47.730469l71.59375 71.59375 77.785156 77.78125c18.519531 18.523438 42.847657 27.78125 67.171875 27.78125 24.328125 0 48.65625-9.257812 67.175782-27.78125l108.242187-108.238281c10.386719-10.390625 16.109375-24.199219 16.109375-38.890625v-96.519531c0-24.816406-20.1875-45.003906-45-45.003906zm0 0" fill="#4aa0d2" data-original="#000000" style="" class=""/></g></svg>
